<svg xmlns="http://www.w3.org/2000/svg" viewBox="0 0 2048 2048" width="1024" height="1024" style="display: block;">
<defs>
<mask id="e1" maskUnits="userSpaceOnUse" x="0" y="0" width="2048" height="2048">
<rect x="0" y="0" width="2048" height="2048" fill="#fff"/>
<path fill="#000" d="M 521.101 968.199 C 530.895 967.283 532.153 967.431 540.145 961.193 C 552.197 976.031 569.229 994.012 582.381 1008.24 C 576.289 1023.92 576.797 1041.38 574.615 1057.98 C 573.95 1063.05 574.086 1067.66 578.071 1071.1 C 591.967 1074.34 636.418 1046.7 652.85 1040.95 C 656.025 1045.49 665.772 1062.23 668.97 1067.81 C 665.469 1079.77 661.116 1092.21 657.21 1104.09 C 656.543 1106.12 651.918 1106.24 650.213 1106.5 C 637.226 1108 624.194 1111.65 611.414 1113.45 C 573.242 1118.81 602.095 1141.9 618.331 1153.73 C 614.226 1163.38 609.552 1175.06 604.389 1183.99 C 597.327 1185.54 590.199 1186.78 583.588 1189.66 C 551.735 1170.96 526.798 1148.44 497.283 1128.71 C 501.676 1110.94 500.338 1098.26 483.271 1088.09 C 497.022 1049.85 506.553 1006.16 521.101 968.199 z"/>
</mask>
<mask id="e2" maskUnits="userSpaceOnUse" x="0" y="0" width="2048" height="2048">
<rect x="0" y="0" width="2048" height="2048" fill="#fff"/>
<path fill="#000" d="M 1230.27 713.783 C 1234.67 700.704 1233.22 686.59 1235.91 673.187 C 1251.69 594.295 1329.62 552.116 1404.31 575.648 C 1406.21 576.232 1408.08 576.88 1409.93 577.592 C 1390.91 591.033 1371.81 604.365 1352.63 617.588 C 1324.48 636.949 1289.68 651.107 1317.28 689.8 C 1328.54 705.588 1340.83 722.039 1351.78 737.993 C 1348.51 738.182 1322.79 728.95 1316.86 727.68 C 1287.8 721.461 1259.69 717.331 1230.27 713.783 z"/>
</mask>
<mask id="e3" maskUnits="userSpaceOnUse" x="0" y="0" width="2048" height="2048">
<rect x="0" y="0" width="2048" height="2048" fill="#fff"/>
<path fill="#000" d="M 649.24 1122.25 C 650.465 1125.12 653.353 1147.53 650.279 1149.62 C 636.529 1147.44 624.61 1139.19 613.749 1130.77 C 618.512 1129.5 623.204 1128.32 628.014 1127.23 L 632.013 1126.32 C 637.757 1124.97 643.498 1123.61 649.24 1122.25 z"/>
</mask>
<mask id="e4" maskUnits="userSpaceOnUse" x="0" y="0" width="2048" height="2048">
<rect x="0" y="0" width="2048" height="2048" fill="#fff"/>
<path fill="#000" d="M 1377.28 769.374 C 1388.09 772.351 1394.91 773.866 1405.12 767.329 C 1419.13 758.364 1433.97 747.976 1447.46 738.252 C 1462.56 727.377 1481.73 715.673 1495.96 704.324 C 1493.69 772.794 1454.97 817.016 1387.85 830.48 C 1387.28 805.362 1386.02 792.807 1377.28 769.374 z"/>
</mask>
<mask id="e5" maskUnits="userSpaceOnUse" x="0" y="0" width="2048" height="2048">
<rect x="0" y="0" width="2048" height="2048" fill="#fff"/>
<path fill="#000" d="M 595.481 1019.39 C 619.14 1006.39 630.839 993.853 658.056 990.877 C 657.902 1000.21 655.912 1016.1 655.198 1026.4 C 651.691 1025.27 619.573 1012.8 619.549 1012.82 C 604.141 1023.49 619.767 1028.88 628.644 1033.87 C 616.925 1040.7 603.478 1046.64 590.738 1051.25 C 591.161 1043.06 591.86 1038.48 592.947 1030.5 C 593.294 1027.92 593.811 1025.37 594.495 1022.87 C 594.824 1021.71 595.152 1020.55 595.481 1019.39 z"/>
<path fill="#000" d="M 600.227 1200.36 C 608.173 1199.79 615.092 1205.74 615.722 1213.68 C 616.353 1221.62 610.46 1228.59 602.523 1229.28 C 594.5 1229.98 587.443 1224.01 586.806 1215.98 C 586.169 1207.95 592.194 1200.94 600.227 1200.36 z"/>
<path fill="#000" d="M 466.017 1101.52 C 473.546 1099.43 481.344 1103.85 483.416 1111.38 C 485.489 1118.91 481.049 1126.7 473.509 1128.75 C 465.999 1130.79 458.251 1126.37 456.187 1118.87 C 454.122 1111.37 458.519 1103.61 466.017 1101.52 z"/>
<path fill="#000" d="M 516.475 925.646 C 523.57 922.624 531.774 925.914 534.814 933.002 C 537.854 940.09 534.585 948.302 527.504 951.36 C 520.399 954.43 512.151 951.146 509.1 944.032 C 506.049 936.919 509.353 928.68 516.475 925.646 z"/>
</mask>
</defs>
<g mask="url(#e5)">
<g mask="url(#e4)">
<g mask="url(#e3)">
<g mask="url(#e2)">
<g mask="url(#e1)">
<path transform="translate(0,0)" fill="#F2F0EE" d="M 1215.26 710.71 L 1215.69 709.217 C 1219.35 696.176 1218.53 682.364 1220.88 669.061 C 1228.28 627.094 1255.23 592.328 1292.02 571.516 C 1326.57 551.972 1365.74 548.212 1403.75 559.105 C 1411.15 561.225 1428.15 565.695 1432.3 572.642 C 1433.59 574.793 1433.37 577.197 1432.58 579.454 C 1429.17 589.294 1330.39 645.571 1323.66 660.438 C 1322.49 663.017 1322.96 666.499 1323.83 669.088 C 1326.42 676.765 1378.86 750.798 1385.3 755.601 C 1401.9 759.148 1480.53 687.767 1503.58 683.51 C 1512.4 685.876 1511.64 697.742 1511.76 705.415 C 1512.9 782.379 1458.02 834.393 1386.16 846.793 C 1384.41 871.56 1381.91 896.892 1379.07 921.52 C 1372.13 981.732 1368.82 1044.22 1359.75 1104.07 C 1347.97 1181.84 1309.35 1254.87 1249.83 1306.51 C 1238.66 1316.26 1215.4 1333.85 1202.3 1340.81 L 1202.47 1454.25 C 1202.43 1470.61 1202.73 1488.38 1201.91 1504.66 C 1197.66 1520.09 1185.15 1512.8 1185.77 1498.52 C 1186.53 1480.91 1185.59 1462.69 1186.11 1445.06 C 1187.03 1413.58 1184.82 1380.65 1186.23 1349.34 C 1081.18 1401.69 998.787 1380.54 889.92 1370.76 C 888.388 1407.92 891.572 1469.04 889.156 1508.06 C 889.022 1510.23 885.943 1511.94 883.898 1512.86 C 877.668 1513.02 873.735 1510.31 873.812 1503.59 C 873.963 1490.38 874.101 1477.26 874.055 1464.03 C 873.835 1431.83 873.802 1399.63 873.957 1367.42 C 834.84 1356.37 808.749 1350.67 772.188 1328.88 C 707.419 1290.26 672.667 1236.8 654.444 1165.09 C 645.048 1165.27 640.764 1163.91 631.933 1161.39 C 630.744 1164.31 619.631 1189.72 620.308 1190.51 C 632.412 1204.63 637.811 1227.75 617.535 1239.62 C 591.189 1255.05 565.628 1232.78 573.415 1202.98 C 564.377 1197.51 552.101 1188.05 543.272 1181.65 C 524.413 1167.84 505.454 1154.18 486.396 1140.65 C 483.111 1141.91 480.187 1142.87 476.732 1143.66 C 468.797 1145.39 460.5 1143.91 453.658 1139.53 C 446.934 1135.24 442.232 1128.41 440.621 1120.6 C 439.037 1112.78 440.668 1104.66 445.145 1098.07 C 451.281 1089.16 458.361 1086.9 468.123 1084.92 L 505.679 962.852 C 490.783 949.957 484.869 931.715 501.442 917.073 C 507.934 911.277 516.588 908.522 525.236 909.501 C 547.864 911.995 553.797 930.137 551.051 950.025 C 564.286 963.474 582.835 984.942 594.977 999.6 C 625.556 985.26 622.966 976.371 660.49 974.894 C 669.116 896.842 705.749 824.565 763.599 771.461 C 818.546 721.111 890.042 692.646 964.561 691.451 C 985.787 691.009 1013.01 693.463 1034.54 695.047 C 1073.9 697.966 1113.22 701.403 1152.49 705.359 C 1172.56 707.216 1195.3 709.844 1215.26 710.71 z"/>
<path transform="translate(0,0)" fill="#19B183" d="M 1282.26 819.56 C 1318.72 843.782 1342.74 849.005 1386.16 846.793 C 1384.41 871.56 1381.91 896.892 1379.07 921.52 C 1372.13 981.732 1368.82 1044.22 1359.75 1104.07 C 1347.97 1181.84 1309.35 1254.87 1249.83 1306.51 C 1238.66 1316.26 1215.4 1333.85 1202.3 1340.81 C 1202.83 1297.34 1212.26 1246.49 1163.08 1227.28 L 1162.95 1161.98 C 1162.9 1150.66 1163.25 1133.52 1162.05 1122.74 C 1180.48 1103.24 1198.14 1072.17 1213.04 1048.11 C 1224.08 1027.3 1257.08 987.621 1254.72 963.562 C 1251.45 930.348 1231.68 881.278 1221.84 848.68 C 1240.36 838.656 1262.98 829.433 1282.26 819.56 z"/>
<path transform="translate(0,0)" fill="#19B183" d="M 660.49 974.894 C 669.116 896.842 705.749 824.565 763.599 771.461 C 818.546 721.111 890.042 692.646 964.561 691.451 C 985.787 691.009 1013.01 693.463 1034.54 695.047 C 1073.9 697.966 1113.22 701.403 1152.49 705.359 C 1172.56 707.216 1195.3 709.844 1215.26 710.71 C 1204.07 731.431 1155.1 754.063 1133.27 763.587 C 1130.14 709.685 1063.38 701.545 1047.32 750.846 L 1046.85 752.252 C 1013.3 736.24 986.044 747.423 978.215 784.831 C 941.81 774.846 916.057 788.085 913.379 827.776 C 898.586 822.921 889.799 822.381 875.341 829.461 C 840.522 846.512 857.932 889.351 861.978 918.011 C 851.087 922.619 838.373 929.812 827.693 935.414 L 776.592 962.039 C 745.514 978.218 743.303 980.295 708.299 983.712 C 691.18 968.423 681.706 972.203 660.49 974.894 z"/>
<path transform="translate(0,0)" fill="#19B183" d="M 654.444 1165.09 C 667.797 1164.02 703.072 1161.94 714.5 1157.38 C 738.885 1147.63 749.136 1093.65 770.33 1077.09 C 783.945 1066.46 798.243 1060.8 812.873 1053.82 C 829.324 1046.09 845.687 1038.18 861.958 1030.08 C 865.013 1059.32 868.092 1082.9 880.888 1110.3 C 886.968 1123.32 894.986 1131.57 902.424 1143.1 C 917.993 1167.22 922.754 1196.62 922.889 1224.67 C 905.006 1229.17 892.557 1235.22 882.569 1251.67 C 878.766 1257.9 876.157 1264.78 874.878 1271.96 C 873.109 1282.05 873.763 1298.27 873.834 1308.78 C 874.12 1328.33 874.161 1347.88 873.957 1367.42 C 834.84 1356.37 808.749 1350.67 772.188 1328.88 C 707.419 1290.26 672.667 1236.8 654.444 1165.09 z"/>
<path transform="translate(0,0)" fill="#19B183" d="M 889.92 1370.76 C 890.2 1351.07 890.212 1331.36 889.956 1311.66 C 889.867 1293.31 887.535 1271.39 899.203 1256.09 C 913.078 1237.89 937.333 1240.26 957.678 1240.11 L 1089.05 1240.17 C 1110.05 1240.15 1133.39 1239.25 1154.4 1241.26 C 1160.91 1241.89 1170.34 1248.5 1174.85 1253.24 C 1188.99 1268.12 1186.26 1289.78 1186.45 1308.55 C 1186.5 1322.24 1186.32 1335.77 1186.23 1349.34 C 1081.18 1401.69 998.787 1380.54 889.92 1370.76 z"/>
<path transform="translate(0,0)" fill="#19B183" d="M 1131.48 914.912 L 1133.04 914.852 C 1136.89 917.836 1137.67 930.392 1138.48 936.101 C 1106.2 946.6 1059.49 979.47 1043.17 1010.05 C 1031.81 1031.05 1029.44 1055.76 1036.61 1078.53 C 1043.56 1100.86 1059.25 1119.43 1080.11 1130 C 1102.33 1141.35 1122.95 1141.03 1146.14 1133.61 C 1146.03 1164.03 1146.7 1194.46 1146.31 1224.88 L 990.521 1224.65 L 939.483 1224.88 C 938.881 1197.17 933.747 1159.11 917.033 1136.83 C 887.839 1097.92 879.936 1072.47 878.221 1022.97 C 885.54 1019.04 892.88 1015.14 900.241 1011.29 L 903.888 1011.88 C 930.287 1016.21 947.17 1004.93 955.517 980.234 C 987.898 994.669 1011.5 984.818 1022.43 950.759 C 1050.9 958.985 1075.53 955.231 1084.48 923.053 C 1105.89 922.944 1111.21 922.283 1131.48 914.912 z"/>
<path transform="translate(0,0)" fill="#19B183" d="M 1168.51 825.192 C 1182.75 823.345 1195.51 827.367 1201.66 841.547 C 1207.19 856.193 1213.25 871.713 1217.35 886.952 C 1223.04 908.1 1243.72 955.247 1236.34 976.637 C 1229.55 996.341 1209.16 1022.22 1198.38 1040.73 C 1187.71 1059.07 1174.5 1077.29 1163.6 1095.6 C 1145.26 1126.58 1108.28 1131.1 1079.63 1111.16 C 1061.57 1098.59 1053.04 1082.65 1049.3 1060.83 C 1045.89 1008.79 1083.53 983.586 1124.13 959.513 C 1140.33 949.911 1158.45 950.427 1152.28 925.325 C 1150.94 919.853 1148.7 901.512 1143.29 899.276 C 1134.18 895.518 1119.27 903.686 1109.93 905.43 C 1088.41 908.775 1061.95 908.898 1041.96 899.418 C 1025.03 891.393 1027.38 864.395 1043.22 858.905 C 1062.51 852.224 1085.63 846.934 1105.98 841.78 C 1126.37 836.616 1147.92 829.573 1168.51 825.192 z"/>
</g>
<path transform="translate(0,0)" fill="#19B183" d="M 652.85 1040.95 C 656.025 1045.49 665.772 1062.23 668.97 1067.81 C 665.469 1079.77 661.116 1092.21 657.21 1104.09 C 656.543 1106.12 651.918 1106.24 650.213 1106.5 C 650.479 1083.68 652.073 1063.05 652.85 1040.95 z"/>
<path transform="translate(0,0)" fill="#19B183" d="M 1136.44 780.324 C 1149.33 774.155 1162.04 767.651 1174.59 760.818 C 1199.78 747.301 1216.99 739.892 1230.27 713.783 C 1259.69 717.331 1287.8 721.461 1316.86 727.68 C 1322.79 728.95 1348.51 738.182 1351.78 737.993 C 1359.91 748.196 1367.54 761.995 1377.28 769.374 C 1386.02 792.807 1387.28 805.362 1387.85 830.48 C 1346.04 835.622 1317.41 825.582 1284.76 800.918 C 1266.89 808.065 1234.26 824.976 1216.44 833.954 C 1193.68 802.432 1175.79 806.295 1142.26 815.138 C 1140.06 804.636 1138.21 791.102 1136.44 780.324 z"/>
</g>
<path transform="translate(0,0)" fill="#19B183" d="M 658.056 990.877 C 668.745 989.562 678.196 988.45 689.063 988.211 C 705.037 999.438 727.547 1042.72 742.284 1058.87 C 744.616 1061.42 749.693 1068.75 751.679 1071.86 C 742.038 1087.11 734.164 1103.32 725.703 1119.22 C 722.264 1125.68 717.365 1136.44 713.307 1142.14 C 704.407 1145.16 658.832 1150.66 650.279 1149.62 C 636.529 1147.44 624.61 1139.19 613.749 1130.77 C 618.512 1129.5 623.204 1128.32 628.014 1127.23 L 632.013 1126.32 C 637.757 1124.97 643.498 1123.61 649.24 1122.25 C 656.539 1120.66 662.983 1118.99 670.192 1117.01 C 676.002 1100.11 681.348 1083.06 686.222 1065.86 C 681.541 1056.8 673.918 1045.5 668.44 1036.64 C 664.283 1029.92 662.509 1027.76 655.198 1026.4 C 655.912 1016.1 657.902 1000.21 658.056 990.877 z"/>
</g>
<path transform="translate(0,0)" fill="#19B183" d="M 862.777 934.871 C 865.901 935.209 865.223 938.072 865.937 941.481 C 870.942 965.375 867.651 982.482 884.283 1001.28 C 875.938 1006.43 862.146 1012.53 852.966 1016.9 L 802.312 1041 C 786.692 1048.4 776.769 1052.28 762.941 1062.8 L 754.048 1049.31 L 718.639 998.052 C 726.488 996.984 741.725 996.069 748.795 993.576 C 762.009 988.917 777.852 979.608 790.56 972.9 L 862.777 934.871 z"/>
<path transform="translate(0,0)" fill="#19B183" d="M 956.442 796.367 C 969.668 797.239 979.847 804.074 982.727 817.963 C 991.246 859.046 1001.12 901.684 1006.38 943.241 C 1008.2 957.594 994.855 967.812 981.728 971.167 C 972.959 970.999 958.521 966.723 956.214 956.897 C 947.094 918.063 941.786 878.099 932.43 839.233 C 927.313 817.975 931.831 799.751 956.442 796.367 z"/>
<path transform="translate(0,0)" fill="#19B183" d="M 886.948 841.19 C 892.354 840.486 897.715 840.322 903.035 841.692 C 908.751 843.164 915.109 846.908 917.857 852.338 C 923.744 863.968 943.428 968.413 940.307 977.185 C 936.904 986.749 930.73 991.462 921.878 995.615 C 890.587 1000.92 888.636 980.3 884.488 956.062 C 880.547 932.202 876.446 908.308 872.272 884.492 C 870.69 875.467 867.664 865.486 870.806 856.717 C 873.881 848.132 879.104 844.842 886.948 841.19 z"/>
</g>
<path transform="translate(0,0)" fill="#19B183" d="M 1011.18 878.679 C 1006.08 848.351 999.835 817.484 994.495 787.183 C 994.388 782.689 996.375 776.431 998.799 772.923 C 1009.43 755.866 1039.85 756.523 1046.35 777.085 C 1052.09 795.224 1055.22 819.116 1057.93 838.108 C 1031.92 843.105 1018.27 850.705 1013.73 878.629 C 1014.13 883.042 1014.28 886.955 1015.51 891.215 C 1027.17 918.745 1043.63 919.005 1070.21 922.311 C 1057.58 942.482 1038.69 944.863 1021.71 927.864 C 1018.1 915.824 1016.29 904.593 1013.47 892.527 C 1012.67 887.917 1011.9 883.301 1011.18 878.679 z"/>
<path transform="translate(0,0)" fill="#19B183" d="M 1084.58 734.173 C 1093.21 733.775 1100.35 734.278 1107.03 740.49 C 1115.36 748.247 1117.16 759.316 1118.84 770.008 C 1121.43 786.526 1124.24 802.981 1127.47 819.383 C 1117.89 821.792 1106.71 824.762 1097.25 827.441 C 1089.68 829.894 1081.26 831.82 1073.57 834.055 C 1068.5 812.988 1067.21 790.256 1062.71 769.003 C 1059.03 751.593 1067.3 738.496 1084.58 734.173 z"/>
</g>
</svg>
